<svg id="Capa_1" enable-background="new 0 0 484 484" height="512" viewBox="0 0 484 484" width="512" xmlns="http://www.w3.org/2000/svg"><path d="m423 101c0-3.314-2.686-6-6-6h-350c-3.314 0-6 2.686-6 6v216c0 3.314 2.686 6 6 6h350c3.314 0 6-2.686 6-6zm-12 210h-338v-204h338z"/><path d="m478.312 348h-15.312v-249.61c-.101-25.697-20.996-46.456-46.693-46.39h-348.614c-25.696-.065-46.591 20.694-46.693 46.39v249.61h-15.312c-3.313 0-5.688 3.1-5.688 6.415v31.195c-.105 25.515 20.494 46.285 46.01 46.39h.249 391.482c25.516.033 46.227-20.625 46.259-46.141 0-.083 0-.166 0-.249v-31.195c0-3.315-2.375-6.415-5.688-6.415zm-445.312-249.61c.095-19.072 15.621-34.463 34.693-34.39h348.614c19.073-.073 34.599 15.318 34.693 34.39v249.61h-149.481c-1.702.078-3.298.852-4.413 2.141l-8.234 8.826c-6.563 7.062-15.779 11.062-25.42 11.033h-42.9c-9.628.068-18.845-3.895-25.42-10.929l-8.234-9.036c-1.127-1.261-2.726-1.998-4.417-2.035h-149.481zm439 287.22c.111 18.882-15.107 34.279-33.989 34.389-.09.001-.18.001-.27.001h-391.482c-18.883.038-34.221-15.238-34.26-34.12 0-.09 0-.18.001-.27v-25.61h167.852l6.452 7c8.828 9.55 21.239 14.986 34.244 15h42.9c13.008-.011 25.422-5.448 34.252-15l6.452-7h167.848z"/><path d="m223.408 244.86c3.314.003 6.002-2.681 6.005-5.995.002-1.882-.88-3.656-2.381-4.791l-31.785-24.035 31.785-24.039c2.657-1.98 3.206-5.739 1.226-8.396s-5.739-3.206-8.396-1.226c-.023.017-.045.034-.068.051l-38.113 28.821c-2.643 1.999-3.165 5.762-1.166 8.405.333.441.726.833 1.166 1.166l38.113 28.821c1.04.79 2.309 1.218 3.614 1.218z"/><path d="m255.8 242.479c1.999 2.643 5.762 3.165 8.405 1.166l38.113-28.821c2.643-1.999 3.165-5.762 1.166-8.405-.333-.441-.726-.833-1.166-1.166l-38.113-28.821c-2.595-2.06-6.369-1.627-8.43.969-2.06 2.595-1.627 6.369.969 8.43.073.058.148.115.224.17l31.785 24.036-31.785 24.035c-2.644 1.997-3.168 5.76-1.171 8.404z"/><path d="m234.6 259.185c3.276.496 6.334-1.759 6.83-5.035l13.01-85.963c.497-3.277-1.756-6.336-5.033-6.833s-6.336 1.756-6.833 5.033l-13.01 85.963c-.498 3.276 1.753 6.336 5.03 6.834.002.001.004.001.006.001z"/><path d="m242 299.956c49.681 0 89.956-40.275 89.956-89.956s-40.275-89.956-89.956-89.956-89.956 40.275-89.956 89.956c.057 49.658 40.298 89.9 89.956 89.956zm0-167.912c43.054 0 77.956 34.902 77.956 77.956s-34.902 77.956-77.956 77.956-77.956-34.902-77.956-77.956c.049-43.033 34.923-77.907 77.956-77.956z"/></svg>